<?plantuml 1.2026.2?><svg xmlns="http://www.w3.org/2000/svg" xmlns:xlink="http://www.w3.org/1999/xlink" contentStyleType="text/css" data-diagram-type="DESCRIPTION" height="458px" preserveAspectRatio="none" style="width:1007px;height:458px;background:#FFFFFF;" version="1.1" viewBox="0 0 1007 458" width="1007px" zoomAndPan="magnify"><title>5G Core Platform &#8212; Service Catalogue</title><defs/><g><g class="title" data-source-line="4"><text fill="#000000" font-family="sans-serif" font-size="14" font-weight="bold" lengthAdjust="spacing" textLength="302.2578" x="345.3711" y="22.9951">5G Core Platform &#8212; Service Catalogue</text></g><!--cluster Application Services (Java / Spring Boot 4, Java 17)--><g class="cluster" data-qualified-name="Application Services .Java . Spring Boot 4. Java 17." data-source-line="10" id="ent0002"><path d="M8.5,47.7969 L411.6309,47.7969 A3.75,3.75 0 0 1 414.1309,50.2969 L421.1309,70.0938 L421.5,70.0938 A2.5,2.5 0 0 1 424,72.5938 L424,237.2969 A2.5,2.5 0 0 1 421.5,239.7969 L8.5,239.7969 A2.5,2.5 0 0 1 6,237.2969 L6,50.2969 A2.5,2.5 0 0 1 8.5,47.7969" fill="#E8F0FE" style="stroke:#000000;stroke-width:1.5;"/><line style="stroke:#000000;stroke-width:1.5;" x1="6" x2="421.1309" y1="70.0938" y2="70.0938"/><text fill="#000000" font-family="sans-serif" font-size="14" font-weight="bold" lengthAdjust="spacing" textLength="402.1309" x="10" y="62.792">Application Services (Java / Spring Boot 4, Java 17)</text></g><!--cluster Identity--><g class="cluster" data-qualified-name="Identity" data-source-line="17" id="ent0007"><path d="M748.5,47.7969 L811.502,47.7969 A3.75,3.75 0 0 1 814.002,50.2969 L821.002,70.0938 L857.5,70.0938 A2.5,2.5 0 0 1 860,72.5938 L860,132.2969 A2.5,2.5 0 0 1 857.5,134.7969 L748.5,134.7969 A2.5,2.5 0 0 1 746,132.2969 L746,50.2969 A2.5,2.5 0 0 1 748.5,47.7969" fill="#FEF7E0" style="stroke:#000000;stroke-width:1.5;"/><line style="stroke:#000000;stroke-width:1.5;" x1="746" x2="821.002" y1="70.0938" y2="70.0938"/><text fill="#000000" font-family="sans-serif" font-size="14" font-weight="bold" lengthAdjust="spacing" textLength="62.002" x="750" y="62.792">Identity</text></g><!--cluster Data Stores--><g class="cluster" data-qualified-name="Data Stores" data-source-line="21" id="ent0009"><path d="M450.5,43.2969 L544.708,43.2969 A3.75,3.75 0 0 1 547.208,45.7969 L554.208,65.5938 L719.5,65.5938 A2.5,2.5 0 0 1 722,68.0938 L722,241.7969 A2.5,2.5 0 0 1 719.5,244.2969 L450.5,244.2969 A2.5,2.5 0 0 1 448,241.7969 L448,45.7969 A2.5,2.5 0 0 1 450.5,43.2969" fill="#E6F4EA" style="stroke:#000000;stroke-width:1.5;"/><line style="stroke:#000000;stroke-width:1.5;" x1="448" x2="554.208" y1="65.5938" y2="65.5938"/><text fill="#000000" font-family="sans-serif" font-size="14" font-weight="bold" lengthAdjust="spacing" textLength="93.208" x="452" y="58.292">Data Stores</text></g><!--cluster Observability--><g class="cluster" data-qualified-name="Observability" data-source-line="27" id="ent0013"><path d="M34.5,268.2969 L140.9648,268.2969 A3.75,3.75 0 0 1 143.4648,270.7969 L150.4648,290.5938 L543.5,290.5938 A2.5,2.5 0 0 1 546,293.0938 L546,448.7969 A2.5,2.5 0 0 1 543.5,451.2969 L34.5,451.2969 A2.5,2.5 0 0 1 32,448.7969 L32,270.7969 A2.5,2.5 0 0 1 34.5,268.2969" fill="#FCE8E6" style="stroke:#000000;stroke-width:1.5;"/><line style="stroke:#000000;stroke-width:1.5;" x1="32" x2="150.4648" y1="290.5938" y2="290.5938"/><text fill="#000000" font-family="sans-serif" font-size="14" font-weight="bold" lengthAdjust="spacing" textLength="105.4648" x="36" y="283.292">Observability</text></g><!--cluster Client--><g class="cluster" data-qualified-name="Client" data-source-line="35" id="ent0019"><path d="M886.5,47.7969 L933.5264,47.7969 A3.75,3.75 0 0 1 936.0264,50.2969 L943.0264,70.0938 L997.5,70.0938 A2.5,2.5 0 0 1 1000,72.5938 L1000,132.2969 A2.5,2.5 0 0 1 997.5,134.7969 L886.5,134.7969 A2.5,2.5 0 0 1 884,132.2969 L884,50.2969 A2.5,2.5 0 0 1 886.5,47.7969" fill="#F3E8FD" style="stroke:#000000;stroke-width:1.5;"/><line style="stroke:#000000;stroke-width:1.5;" x1="884" x2="943.0264" y1="70.0938" y2="70.0938"/><text fill="#000000" font-family="sans-serif" font-size="14" font-weight="bold" lengthAdjust="spacing" textLength="46.0264" x="888" y="62.792">Client</text></g><!--entity eureka-server--><g class="entity" data-qualified-name="Application Services .Java . Spring Boot 4. Java 17..eureka-server" data-source-line="11" id="ent0003"><rect fill="#F1F1F1" height="36.2969" rx="2.5" ry="2.5" style="stroke:#181818;stroke-width:0.5;" width="117.9111" x="96" y="82.7969"/><text fill="#000000" font-family="sans-serif" font-size="14" lengthAdjust="spacing" textLength="97.9111" x="106" y="105.792">eureka-server</text></g><!--entity gateway-service--><g class="entity" data-qualified-name="Application Services .Java . Spring Boot 4. Java 17..gateway-service" data-source-line="12" id="ent0004"><rect fill="#F1F1F1" height="36.2969" rx="2.5" ry="2.5" style="stroke:#181818;stroke-width:0.5;" width="135.083" x="272.5" y="82.7969"/><text fill="#000000" font-family="sans-serif" font-size="14" lengthAdjust="spacing" textLength="115.083" x="282.5" y="105.792">gateway-service</text></g><!--entity auth-service--><g class="entity" data-qualified-name="Application Services .Java . Spring Boot 4. Java 17..auth-service" data-source-line="13" id="ent0005"><rect fill="#F1F1F1" height="36.2969" rx="2.5" ry="2.5" style="stroke:#181818;stroke-width:0.5;" width="107.0146" x="71.5" y="187.7969"/><text fill="#000000" font-family="sans-serif" font-size="14" lengthAdjust="spacing" textLength="87.0146" x="81.5" y="210.792">auth-service</text></g><!--entity roaming-analysis-service--><g class="entity" data-qualified-name="Application Services .Java . Spring Boot 4. Java 17..roaming-analysis-service" data-source-line="14" id="ent0006"><rect fill="#F1F1F1" height="36.2969" rx="2.5" ry="2.5" style="stroke:#181818;stroke-width:0.5;" width="195.123" x="213.5" y="187.7969"/><text fill="#000000" font-family="sans-serif" font-size="14" lengthAdjust="spacing" textLength="175.123" x="223.5" y="210.792">roaming-analysis-service</text></g><!--entity keycloak--><g class="entity" data-qualified-name="Identity.keycloak" data-source-line="18" id="ent0008"><rect fill="#F1F1F1" height="36.2969" rx="2.5" ry="2.5" style="stroke:#181818;stroke-width:0.5;" width="81.8447" x="762" y="82.7969"/><text fill="#000000" font-family="sans-serif" font-size="14" lengthAdjust="spacing" textLength="61.8447" x="772" y="105.792">keycloak</text></g><!--entity roaming-mysql--><g class="entity" data-qualified-name="Data Stores.roaming-mysql" data-source-line="22" id="ent0010"><path d="M464.5,88.2969 C464.5,78.2969 527.1162,78.2969 527.1162,78.2969 C527.1162,78.2969 589.7324,78.2969 589.7324,88.2969 L589.7324,113.5938 C589.7324,123.5938 527.1162,123.5938 527.1162,123.5938 C527.1162,123.5938 464.5,123.5938 464.5,113.5938 L464.5,88.2969" fill="#F1F1F1" style="stroke:#181818;stroke-width:0.5;"/><path d="M464.5,88.2969 C464.5,98.2969 527.1162,98.2969 527.1162,98.2969 C527.1162,98.2969 589.7324,98.2969 589.7324,88.2969" fill="none" style="stroke:#181818;stroke-width:0.5;"/><text fill="#000000" font-family="sans-serif" font-size="14" lengthAdjust="spacing" textLength="105.2324" x="474.5" y="115.292">roaming-mysql</text></g><!--entity postgres--><g class="entity" data-qualified-name="Data Stores.postgres" data-source-line="23" id="ent0011"><path d="M624.5,88.2969 C624.5,78.2969 664.8926,78.2969 664.8926,78.2969 C664.8926,78.2969 705.2852,78.2969 705.2852,88.2969 L705.2852,113.5938 C705.2852,123.5938 664.8926,123.5938 664.8926,123.5938 C664.8926,123.5938 624.5,123.5938 624.5,113.5938 L624.5,88.2969" fill="#F1F1F1" style="stroke:#181818;stroke-width:0.5;"/><path d="M624.5,88.2969 C624.5,98.2969 664.8926,98.2969 664.8926,98.2969 C664.8926,98.2969 705.2852,98.2969 705.2852,88.2969" fill="none" style="stroke:#181818;stroke-width:0.5;"/><text fill="#000000" font-family="sans-serif" font-size="14" lengthAdjust="spacing" textLength="60.7852" x="634.5" y="115.292">postgres</text></g><!--entity mongodb--><g class="entity" data-qualified-name="Data Stores.mongodb" data-source-line="24" id="ent0012"><path d="M484,193.2969 C484,183.2969 527.1509,183.2969 527.1509,183.2969 C527.1509,183.2969 570.3018,183.2969 570.3018,193.2969 L570.3018,218.5938 C570.3018,228.5938 527.1509,228.5938 527.1509,228.5938 C527.1509,228.5938 484,228.5938 484,218.5938 L484,193.2969" fill="#F1F1F1" style="stroke:#181818;stroke-width:0.5;"/><path d="M484,193.2969 C484,203.2969 527.1509,203.2969 527.1509,203.2969 C527.1509,203.2969 570.3018,203.2969 570.3018,193.2969" fill="none" style="stroke:#181818;stroke-width:0.5;"/><text fill="#000000" font-family="sans-serif" font-size="14" lengthAdjust="spacing" textLength="66.3018" x="494" y="220.292">mongodb</text></g><!--entity PROM--><g class="entity" data-qualified-name="Observability.PROM" data-source-line="28" id="ent0014"><rect fill="#F1F1F1" height="36.2969" rx="2.5" ry="2.5" style="stroke:#181818;stroke-width:0.5;" width="153.8477" x="48" y="303.2969"/><text fill="#000000" font-family="sans-serif" font-size="14" lengthAdjust="spacing" textLength="133.8477" x="58" y="326.292">prometheus  :9090</text></g><!--entity GRAF--><g class="entity" data-qualified-name="Observability.GRAF" data-source-line="29" id="ent0015"><rect fill="#F1F1F1" height="36.2969" rx="2.5" ry="2.5" style="stroke:#181818;stroke-width:0.5;" width="136.7783" x="237.5" y="303.2969"/><text fill="#000000" font-family="sans-serif" font-size="14" lengthAdjust="spacing" textLength="116.7783" x="247.5" y="326.292">grafana     :3000</text></g><!--entity LOKI--><g class="entity" data-qualified-name="Observability.LOKI" data-source-line="30" id="ent0016"><rect fill="#F1F1F1" height="36.2969" rx="2.5" ry="2.5" style="stroke:#181818;stroke-width:0.5;" width="120.3994" x="410" y="303.2969"/><text fill="#000000" font-family="sans-serif" font-size="14" lengthAdjust="spacing" textLength="100.3994" x="420" y="326.292">loki        :3100</text></g><!--entity TEMPO--><g class="entity" data-qualified-name="Observability.TEMPO" data-source-line="31" id="ent0017"><rect fill="#F1F1F1" height="36.2969" rx="2.5" ry="2.5" style="stroke:#181818;stroke-width:0.5;" width="217.3809" x="48.5" y="399.2969"/><text fill="#000000" font-family="sans-serif" font-size="14" lengthAdjust="spacing" textLength="197.3809" x="58.5" y="422.292">tempo       :4317/4318/3200</text></g><!--entity FB--><g class="entity" data-qualified-name="Observability.FB" data-source-line="32" id="ent0018"><rect fill="#F1F1F1" height="36.2969" rx="2.5" ry="2.5" style="stroke:#181818;stroke-width:0.5;" width="142.1377" x="301" y="399.2969"/><text fill="#000000" font-family="sans-serif" font-size="14" lengthAdjust="spacing" textLength="122.1377" x="311" y="422.292">fluent-bit  :24224</text></g><!--entity Frontend--><g class="entity" data-qualified-name="Client.Frontend" data-source-line="36" id="ent0020"><rect fill="#F1F1F1" height="36.2969" rx="2.5" ry="2.5" style="stroke:#181818;stroke-width:0.5;" width="83.1094" x="900.5" y="82.7969"/><text fill="#000000" font-family="sans-serif" font-size="14" lengthAdjust="spacing" textLength="63.1094" x="910.5" y="105.792">Frontend</text></g><?plantuml-src hLF1Rfj05BpxAvxe8QrKozYGsB7KW-D0bBQHhJW_y0mFl6BPfRkBKrHLwaVq2_CbVJX4DfPwonvWjJEZcJSi5_3bFTRW0c13PYyIif2WGwdpck3bpr-WFPa6x2iuIhHoA1GP40hSZY0bAtB5-lV9uOIJ19TtiDI6O2tHPTgKXo1TFbY-nHiCR25KXGPBi3jCzRDGEMGeBPqWAMLOI_T4Fzr2SjIIb0D9cJlX9Bgij69WungsDvGuLBbaXmgJ0dC2Rr5LKd0pGgjZKn-_uXvX19lAjDOtMZi8FyFXT3pzvC67Q1RxSGI_1d0q0OzgGmKEsrB9U7qiHqVFs0oxnizGhDtkFv3HM7AA8IgKZHNsIFjzCiTzocJX6iuMH_4qyi-p5TGaKcFHbzrowR1n_55iEzLL74QBWp9bO8kMZlvbOtz8hmTLshgybVPEIwrodMxxHgjj6nktGdOXbz4ikZeFMHbT4b-_sWBCh_rhtmEqi7vSFPoLQJ3ZFg1Tyy3tNtbtZukupvEw4D2jUJ3kUDzNt-xxF4UyVUE5mNWwuiTi54mwnLFqi5xr9Pci-JtS2iUIIJYPX0TcVDCRUoa5izfv0xuoj-VpneR_Er8fT_KF?></g></svg>